<?xml version="1.0" encoding="utf-8"?>
<!-- Generator: Adobe Illustrator 24.0.1, SVG Export Plug-In . SVG Version: 6.00 Build 0)  -->
<svg version="1.1" id="Logo" xmlns="http://www.w3.org/2000/svg" xmlns:xlink="http://www.w3.org/1999/xlink" x="0px" y="0px"
	 viewBox="0 0 137 28" style="enable-background:new 0 0 137 28;" xml:space="preserve">
<style type="text/css">
	.st0{enable-background:new    ;}
	.st1{fill:#FEFEFE;}
	.st2{fill:#65E496;}
	.st3{fill-rule:evenodd;clip-rule:evenodd;fill:#65E496;}
	.st4{fill-rule:evenodd;clip-rule:evenodd;fill:#44444F;}
</style>
<g class="st0">
	<path class="st1" d="M40.5,23v-2.4l2.1-0.4V5.9l-2.1-0.4V3.1h2.1h6.7c2.3,0,4.2,0.5,5.5,1.4s2,2.3,2,4.1c0,0.9-0.2,1.7-0.7,2.5
		c-0.5,0.7-1.2,1.3-2.1,1.6c0.8,0.2,1.5,0.5,2,0.9s0.9,1,1.2,1.6c0.3,0.6,0.4,1.3,0.4,2c0,1.9-0.6,3.3-1.9,4.3s-3,1.5-5.3,1.5H40.5z
		 M46.6,11.4h2.9c1.1,0,1.9-0.2,2.5-0.7s0.9-1.1,0.9-1.9c0-0.9-0.3-1.6-0.9-2c-0.6-0.4-1.4-0.7-2.6-0.7h-2.7V11.4z M46.6,19.9h3.7
		c1.1,0,1.9-0.2,2.4-0.7c0.6-0.5,0.8-1.1,0.8-2c0-0.7-0.1-1.2-0.3-1.7c-0.2-0.4-0.5-0.8-1-1c-0.4-0.2-1-0.3-1.7-0.3h-4V19.9z"/>
	<path class="st1" d="M68.7,23.3c-1.6,0-3-0.3-4.2-0.8c-1.2-0.5-2.1-1.3-2.8-2.4c-0.7-1-1-2.3-1-3.8V5.9l-2.1-0.4V3.1h8.2v2.4
		l-2.1,0.4v10.4c0,0.9,0.2,1.6,0.5,2.2c0.3,0.6,0.8,1,1.4,1.3c0.6,0.3,1.3,0.4,2.1,0.4c0.8,0,1.6-0.1,2.2-0.4s1.1-0.7,1.4-1.3
		c0.3-0.6,0.5-1.3,0.5-2.2V5.9l-2.1-0.4V3.1h8.2v2.4l-2.1,0.4v10.4c0,1.5-0.3,2.8-1,3.8s-1.6,1.8-2.8,2.4S70.3,23.3,68.7,23.3z"/>
	<path class="st1" d="M80.1,23v-2.4l2.1-0.4V5.9l-2.1-0.4V3.1h8.1v2.4l-2,0.4v14.3l2,0.4V23H80.1z M85.4,18.1l-2.1-2.4l9.7-10l0,0
		l-2-0.2V3.1h8.2v2.4l-1.9,0.4L85.4,18.1z M91.6,23v-2.4l1.9-0.2h0l-5.1-7l2.6-2.6l7.1,9.4l2,0.3V23H91.6z"/>
</g>
<g class="st0">
	<path class="st2" d="M101.3,23v-2.4l2.1-0.4V5.9l-2.1-0.4V3.1h15.4v5.4h-3.1l-0.2-2.3h-6.1v5h6.7v3.1h-6.7v5.7h6.4l0.2-2.4h3V23
		H101.3z"/>
	<path class="st2" d="M119.1,23v-2.4l2.1-0.4V5.9l-2.1-0.4V3.1h15.4v5.4h-3.1l-0.2-2.3h-6.1v5h6.7v3.1h-6.7v5.7h6.4l0.2-2.4h3V23
		H119.1z"/>
</g>
<g id="logo_icon">
	<path id="Rectangle_10_copy_3" class="st3" d="M28,28L0,0h28V28z"/>
	<path class="st4" d="M28,0L0,28V0H28z"/>
</g>
</svg>
